<?xml version="1.0" standalone="no"?>
<!DOCTYPE svg PUBLIC "-//W3C//DTD SVG 20010904//EN"
 "http://www.w3.org/TR/2001/REC-SVG-20010904/DTD/svg10.dtd">
<svg version="1.0" xmlns="http://www.w3.org/2000/svg"
 width="32.000000pt" height="32.000000pt" viewBox="0 0 32.000000 32.000000"
 preserveAspectRatio="xMidYMid meet">

<g transform="translate(0.000000,32.000000) scale(0.100000,-0.100000)"
fill="#000000" stroke="none">
<path d="M80 233 c-7 -21 -19 -48 -26 -60 -13 -21 -13 -23 5 -23 12 0 18 6 17
18 0 10 6 16 17 16 9 -1 17 4 17 12 0 8 -7 11 -17 8 -14 -5 -15 -4 -4 4 8 6
11 17 8 25 -10 25 6 29 21 5 9 -15 11 -17 8 -5 -3 10 -6 23 -6 28 0 5 -6 9
-14 9 -8 0 -20 -17 -26 -37z"/>
<path d="M113 180 c-6 -16 -7 -30 -2 -30 5 0 9 -11 9 -25 0 -18 5 -25 20 -25
13 0 20 7 20 19 0 11 4 22 9 25 5 4 7 -10 5 -32 -4 -35 -2 -38 22 -40 41 -3
53 13 53 76 0 35 -4 51 -9 42 -5 -8 -6 -18 -3 -23 3 -5 -1 -13 -8 -18 -10 -6
-11 -9 -1 -9 6 0 12 -9 12 -21 0 -26 -18 -15 -31 19 -8 21 -7 29 7 39 21 15
18 19 -20 29 -24 6 -28 4 -24 -8 4 -8 2 -21 -3 -29 -6 -10 -9 -7 -9 14 0 38
-32 36 -47 -3z m108 -83 c-1 -4 -3 -7 -6 -7 -40 0 -40 0 -25 10 16 10 32 9 31
-3z"/>
</g>
</svg>
