<svg xmlns="http://www.w3.org/2000/svg" xmlns:xlink="http://www.w3.org/1999/xlink" width="500" zoomAndPan="magnify" viewBox="0 0 375 374.999991" height="500" preserveAspectRatio="xMidYMid meet" version="1.0"><defs><g/><clipPath id="8f448c0f8c"><path d="M 37.5 37.5 L 337.5 37.5 L 337.5 337.5 L 37.5 337.5 Z M 37.5 37.5 " clip-rule="nonzero"/></clipPath><clipPath id="5c7c644f43"><path d="M 187.5 37.5 C 104.65625 37.5 37.5 104.65625 37.5 187.5 C 37.5 270.34375 104.65625 337.5 187.5 337.5 C 270.34375 337.5 337.5 270.34375 337.5 187.5 C 337.5 104.65625 270.34375 37.5 187.5 37.5 Z M 187.5 37.5 " clip-rule="nonzero"/></clipPath></defs><g clip-path="url(#8f448c0f8c)"><g clip-path="url(#5c7c644f43)"><path fill="#5ce1e6" d="M 37.5 37.5 L 337.5 37.5 L 337.5 337.5 L 37.5 337.5 Z M 37.5 37.5 " fill-opacity="1" fill-rule="nonzero"/></g></g><path stroke-linecap="butt" transform="matrix(0.75, 0, 0, 0.75, 55.387083, -9.593357)" fill="none" stroke-linejoin="miter" d="M 109.614105 270.166161 L 91.088062 215.327615 L 40.83285 215.327615 L 21.317224 270.166161 L 40.338058 270.166161 L 40.338058 274.999494 L 1.551597 274.999494 L 1.551597 270.166161 L 13.447432 270.166161 L 78.202644 95.796357 L 98.957854 95.796357 L 162.968275 270.166161 L 174.619317 270.166161 L 174.619317 274.999494 L 91.645353 274.999494 L 91.645353 270.166161 Z M 66.983893 143.259902 L 43.129725 209.74949 L 89.103687 209.74949 Z M 66.983893 143.259902 " stroke="#000000" stroke-width="9.518138" stroke-opacity="1" stroke-miterlimit="4"/><path stroke-linecap="butt" transform="matrix(-0.75, 0, 0, -0.75, 301.710923, 356.534595)" fill="none" stroke-linejoin="miter" d="M 82.473945 272.212811 C 90.942695 272.212811 98.421862 269.941978 104.906238 265.395102 C 111.43228 260.811769 114.697905 253.910727 114.697905 244.697184 C 114.697905 235.447184 111.187488 228.379475 104.161446 223.504475 C 97.140612 218.593016 87.166653 214.316974 74.234361 210.681557 C 61.302068 207.04614 51.906234 203.884682 46.04165 201.197182 C 40.213525 198.473223 34.682275 194.900306 29.432274 190.478431 C 18.94269 181.681555 13.69269 168.066971 13.69269 149.645095 C 13.69269 134.566969 19.062482 121.613843 29.807274 110.790926 C 40.546858 99.968008 55.234359 94.55655 73.864569 94.55655 C 82.828111 94.55655 92.161445 95.879466 101.869779 98.5253 C 111.61978 101.124258 117.671864 102.426342 120.02603 102.426342 C 122.421864 102.426342 124.552072 100.733633 126.411447 97.343008 L 129.197906 97.343008 L 130.994781 148.593011 L 126.906239 148.593011 C 118.765614 133.884677 110.255196 122.087801 101.374987 113.207592 C 92.494779 104.327384 82.848945 99.884675 72.437486 99.884675 C 62.067693 99.884675 53.994776 102.301342 48.208317 107.134675 C 42.468734 111.926342 39.593733 118.353426 39.593733 126.40551 C 39.593733 134.421135 43.026025 140.598219 49.880192 144.936761 C 56.739568 149.233636 65.145818 152.744053 75.104152 155.468012 C 85.098945 158.155512 91.666653 160.014887 94.807279 161.046137 C 97.947904 162.035721 101.828112 163.421137 106.458321 165.197179 C 111.124988 166.973221 114.927072 168.853429 117.859364 170.837805 C 120.833322 172.775305 123.973947 175.233638 127.276031 178.207597 C 130.583323 181.145097 133.161448 184.38468 135.020823 187.936764 C 139.609365 196.07739 141.901032 205.723223 141.901032 216.874266 C 141.901032 235.134684 136.177073 249.822185 124.734364 260.93156 C 113.333322 272.004478 98.317696 277.540937 79.687486 277.540937 C 70.062485 277.540937 59.031235 276.28052 46.598942 273.759686 C 34.161441 271.197186 27.265608 269.921144 25.901024 269.921144 C 23.505191 269.921144 21.213524 272.457603 19.020815 277.540937 L 15.489565 277.540937 L 12.953107 217.124266 L 17.28644 217.124266 C 24.723941 231.8326 34.223941 244.697184 45.79165 255.728435 C 57.401026 266.718019 69.630194 272.212811 82.473945 272.212811 Z M 82.473945 272.212811 " stroke="#000000" stroke-width="9.518138" stroke-opacity="1" stroke-miterlimit="4"/><path stroke-linecap="butt" transform="matrix(0.75, 0, 0, 0.75, 130.392404, 54.374996)" fill="none" stroke-linejoin="miter" d="M 5.330962 97.343761 L 81.237217 97.343761 C 104.742427 97.343761 122.362219 100.526053 134.091387 106.890637 C 145.867429 113.208346 151.752846 123.906263 151.752846 138.984389 C 151.752846 162.161474 137.810137 176.02085 109.924719 180.562517 L 109.924719 181.062517 C 143.758054 185.317725 160.674722 200.041685 160.674722 225.239603 C 160.674722 243.708354 153.737222 256.614605 139.857012 263.968772 C 125.976803 271.322939 106.002843 275.000023 79.935133 275.000023 L 5.330962 275.000023 L 5.330962 270.166689 L 21.81013 270.166689 L 21.81013 102.177095 L 5.330962 102.177095 Z M 71.320549 185.151059 L 71.320549 270.166689 L 83.221592 270.166689 C 92.554926 270.166689 99.080968 266.963564 102.799718 260.562522 C 106.518468 254.119813 108.377844 244.635437 108.377844 232.119812 L 108.377844 218.671894 C 108.377844 207.479185 106.086177 199.093768 101.497635 193.515642 C 96.955968 187.937517 88.836176 185.151059 77.148675 185.151059 Z M 71.320549 102.177095 L 71.320549 180.317725 L 77.888258 180.317725 C 86.690342 180.317725 92.825759 177.651058 96.294509 172.322933 C 99.76326 166.994807 101.497635 158.833349 101.497635 147.848973 L 101.497635 135.88543 C 101.497635 123.369805 99.971593 114.635429 96.914301 109.677095 C 93.898676 104.677095 88.075759 102.177095 79.440342 102.177095 Z M 71.320549 102.177095 " stroke="#d9d9d9" stroke-width="12.373579" stroke-opacity="1" stroke-miterlimit="4"/><g fill="#000000" fill-opacity="1"><g transform="translate(130.392404, 260.624983)"><g><path d="M 4 -133.25 L 60.921875 -133.25 C 78.554688 -133.25 91.78125 -130.867188 100.59375 -126.109375 C 109.414062 -121.347656 113.828125 -113.320312 113.828125 -102.03125 C 113.828125 -84.644531 103.359375 -74.238281 82.421875 -70.8125 L 82.421875 -70.4375 C 107.804688 -67.257812 120.5 -56.21875 120.5 -37.3125 C 120.5 -23.476562 115.296875 -13.800781 104.890625 -8.28125 C 94.484375 -2.757812 79.507812 0 59.96875 0 L 4 0 L 4 -3.609375 L 16.375 -3.609375 L 16.375 -129.640625 L 4 -129.640625 Z M 53.484375 -67.390625 L 53.484375 -3.609375 L 62.4375 -3.609375 C 69.414062 -3.609375 74.300781 -6.019531 77.09375 -10.84375 C 79.882812 -15.664062 81.28125 -22.773438 81.28125 -32.171875 L 81.28125 -42.265625 C 81.28125 -50.640625 79.566406 -56.921875 76.140625 -61.109375 C 72.710938 -65.296875 66.625 -67.390625 57.875 -67.390625 Z M 53.484375 -129.640625 L 53.484375 -71 L 58.4375 -71 C 65.039062 -71 69.640625 -73 72.234375 -77 C 74.835938 -81 76.140625 -87.125 76.140625 -95.375 L 76.140625 -104.3125 C 76.140625 -113.707031 75 -120.273438 72.71875 -124.015625 C 70.4375 -127.765625 66.054688 -129.640625 59.578125 -129.640625 Z M 53.484375 -129.640625 "/></g></g></g></svg>