<?xml version="1.0" standalone="no"?>
<!DOCTYPE svg PUBLIC "-//W3C//DTD SVG 20010904//EN"
 "http://www.w3.org/TR/2001/REC-SVG-20010904/DTD/svg10.dtd">
<svg version="1.0" xmlns="http://www.w3.org/2000/svg"
 width="260.000000pt" height="260.000000pt" viewBox="0 0 260.000000 260.000000"
 preserveAspectRatio="xMidYMid meet">
<metadata>
Created by potrace 1.14, written by Peter Selinger 2001-2017
</metadata>
<g transform="translate(0.000000,260.000000) scale(0.100000,-0.100000)"
fill="#000000" stroke="none">
<path d="M1223 2343 c4 -6 -14 -11 -44 -12 -28 -1 -60 -6 -71 -12 -16 -8 -19
-8 -13 1 6 9 2 9 -14 1 -11 -7 -21 -8 -21 -4 0 4 -4 3 -8 -3 -4 -5 -33 -16
-64 -23 -32 -7 -58 -17 -58 -22 0 -6 -4 -8 -8 -5 -5 3 -23 -4 -41 -15 -18 -11
-29 -14 -25 -7 4 7 -1 6 -12 -3 -10 -9 -29 -20 -41 -23 -13 -4 -23 -11 -23
-16 0 -4 -13 -13 -30 -19 -16 -5 -30 -15 -30 -20 0 -6 -7 -11 -15 -11 -9 0
-18 -7 -21 -15 -4 -8 -10 -12 -15 -9 -5 3 -12 -2 -15 -10 -3 -9 -13 -16 -21
-16 -8 0 -11 -4 -8 -10 3 -5 1 -10 -6 -10 -12 0 -151 -141 -145 -148 3 -2 -3
-12 -12 -22 -33 -36 -42 -49 -42 -60 0 -5 -5 -10 -11 -10 -6 0 -9 -6 -7 -12 3
-7 0 -18 -6 -25 -29 -33 -36 -43 -30 -43 3 0 1 -6 -5 -13 -6 -8 -8 -17 -4 -20
3 -4 1 -7 -5 -7 -7 0 -12 -9 -12 -20 0 -11 -5 -20 -11 -20 -5 0 -7 -5 -4 -10
4 -6 2 -16 -3 -23 -10 -13 -27 -77 -24 -89 1 -5 -2 -8 -7 -8 -5 0 -8 -8 -6
-17 1 -10 -2 -24 -8 -30 -6 -9 -5 -13 4 -13 11 0 12 -2 1 -9 -9 -5 -15 -38
-17 -97 -3 -49 -5 -91 -6 -94 -1 -3 -1 -9 0 -14 1 -4 4 -38 7 -75 7 -75 10
-104 14 -111 2 -3 4 -9 5 -15 2 -5 4 -12 5 -15 1 -3 4 -16 6 -30 10 -56 86
-233 110 -258 7 -6 16 -21 19 -32 3 -11 11 -20 16 -20 5 0 9 -6 9 -13 0 -7 14
-29 30 -47 17 -18 30 -38 30 -42 0 -5 4 -6 10 -3 6 3 10 1 10 -5 0 -11 85
-100 96 -100 4 0 17 -11 30 -25 13 -14 26 -25 29 -25 4 0 21 -11 39 -25 18
-14 38 -25 44 -25 6 0 12 -3 14 -7 9 -22 250 -118 262 -105 3 3 6 1 6 -5 0 -5
13 -9 30 -8 16 1 27 -2 24 -7 -3 -4 12 -9 33 -9 93 -3 120 -6 131 -13 7 -4 17
-4 22 -1 6 4 54 9 107 11 54 2 99 8 102 12 4 4 16 7 29 6 12 -1 22 3 22 8 0 6
7 8 15 4 8 -3 15 -2 15 2 0 4 12 8 26 9 15 0 30 6 34 13 4 6 9 11 11 9 6 -3
82 22 95 32 6 5 14 6 17 2 4 -3 7 -1 7 5 0 11 38 28 53 24 5 -1 6 2 3 7 -3 5
7 14 22 20 16 7 39 22 53 35 13 12 31 20 38 18 8 -3 11 0 7 7 -4 6 -3 11 2 11
5 0 42 32 81 70 40 39 69 70 65 70 -4 0 2 10 15 21 27 25 96 131 93 142 -1 4
2 7 8 7 5 0 10 8 10 19 0 10 7 24 15 31 8 7 12 16 9 21 -3 5 -1 9 4 9 5 0 12
10 15 23 3 12 13 42 22 67 9 25 19 54 21 65 2 11 9 43 16 70 17 72 15 395 -3
395 -4 0 -6 8 -4 18 1 9 -2 23 -8 30 -5 6 -7 12 -4 12 4 0 0 18 -8 39 -7 22
-11 42 -8 45 4 3 1 6 -5 6 -7 0 -11 3 -10 8 4 18 -71 172 -83 172 -5 0 -9 8
-9 18 0 9 -11 29 -25 44 -14 15 -25 30 -25 34 0 8 -7 16 -83 94 -69 72 -139
130 -154 130 -7 0 -13 4 -13 8 0 5 -12 15 -27 23 -16 7 -36 21 -46 31 -9 9
-23 15 -30 12 -8 -3 -20 2 -27 11 -7 8 -16 15 -21 15 -4 0 -20 5 -36 12 -15 6
-31 11 -35 10 -5 -1 -8 3 -8 10 0 6 -3 9 -6 5 -3 -3 -23 1 -44 8 -21 7 -41 11
-44 8 -3 -4 -6 -2 -6 4 0 6 -13 10 -30 9 -16 -1 -31 2 -32 6 -2 5 -59 11 -127
13 -67 3 -127 8 -133 11 -6 4 -8 3 -5 -3z"/>
</g>
</svg>
